<svg width="108" preserveAspectRatio="xMidYMid meet" viewBox="0 0 108 120" fill="none" xmlns="http://www.w3.org/2000/svg">
<path fill-rule="evenodd" clip-rule="evenodd" d="M51.9384 0.34142C48.4727 1.31446 43.938 4.39631 39.168 9.95685C29.4166 21.3245 14.6579 40.9048 6.31936 52.1236C2.17512 57.6993 0 64.2596 0 70.9689V114.275C0 117.437 2.83166 120 6.34333 120H101.657C105.168 120 108 117.437 108 114.275V70.9689C108 64.2596 105.825 57.6993 101.681 52.1236C93.3421 40.9048 78.5834 21.3245 68.832 9.95685C64.062 4.39631 59.5273 1.31446 56.0616 0.341421C55.4696 0.0941976 54.7774 -0.0207878 54 0.00308165C53.2226 -0.0207878 52.5304 0.0941965 51.9384 0.34142ZM23.9357 56.9129C21.4584 60.5125 19.2078 63.9959 17.295 67.3259C8.71106 82.2692 23.6534 73.9674 23.6534 73.9674C23.6534 73.9674 30.1593 70.8705 39.4279 66.2595C37.0809 64.9938 34.7488 63.7403 32.4617 62.5165C28.9036 60.6125 26.0801 58.7129 23.9357 56.9129ZM30.8735 47.2373C33.0933 48.0177 35.5818 49.1255 38.3115 50.6075C43.5053 53.4273 48.8606 56.2406 54 58.8876C59.1394 56.2406 64.4947 53.4273 69.6885 50.6075C72.4182 49.1255 74.9067 48.0177 77.1265 47.2373C74.8861 44.2052 72.5622 41.1192 70.2122 37.9987C64.9166 30.9665 59.489 23.7591 54.5891 16.5984C54.386 16.3015 54.1896 16.0081 54 15.7182C53.8104 16.0081 53.614 16.3015 53.4109 16.5984C48.511 23.7591 43.0834 30.9665 37.7878 37.9986C35.4378 41.1192 33.1138 44.2052 30.8735 47.2373ZM54 107.774C54.3857 107.768 54.765 107.762 55.1381 107.756C70.9178 107.512 75.5652 107.441 84.3466 104.198C95.6642 100.018 87.4618 92.2317 84.3466 90.6857C82.9928 90.0139 77.2201 86.8552 69.2984 82.5207C64.7617 80.0383 59.5201 77.1703 54 74.1628C48.4799 77.1703 43.2383 80.0383 38.7016 82.5207C30.7799 86.8552 25.0072 90.0139 23.6534 90.6857C20.5382 92.2317 12.3358 100.018 23.6534 104.198C32.4348 107.441 37.0822 107.512 52.8619 107.756C53.235 107.762 53.6143 107.768 54 107.774ZM68.5721 66.2595C77.8407 70.8705 84.3466 73.9674 84.3466 73.9674C84.3466 73.9674 99.2889 82.2692 90.705 67.3259C88.7922 63.9959 86.5416 60.5125 84.0643 56.9129C81.9199 58.7128 79.0964 60.6125 75.5383 62.5165C73.2512 63.7403 70.9191 64.9938 68.5721 66.2595Z" fill="black"/>
</svg>
